<svg width="373" height="227" viewBox="0 0 373 227" fill="none" xmlns="http://www.w3.org/2000/svg">
<line x1="137.936" y1="113.087" x2="180.936" y2="53.0874" stroke="#00B0F0" stroke-width="10"/>
<line x1="292.713" y1="116.428" x2="331.713" y2="51.4275" stroke="#00B0F0" stroke-width="10"/>
<line x1="251.898" y1="118.859" x2="205.898" y2="52.859" stroke="#00B0F0" stroke-width="10"/>
<path d="M57.3636 130.818C57.0606 127.485 55.7121 124.894 53.3182 123.045C50.9545 121.167 47.5758 120.227 43.1818 120.227C40.2727 120.227 37.8485 120.606 35.9091 121.364C33.9697 122.121 32.5152 123.167 31.5455 124.5C30.5758 125.803 30.0758 127.303 30.0455 129C29.9848 130.394 30.2576 131.621 30.8636 132.682C31.5 133.742 32.4091 134.682 33.5909 135.5C34.803 136.288 36.2576 136.985 37.9545 137.591C39.6515 138.197 41.5606 138.727 43.6818 139.182L51.6818 141C56.2879 142 60.3485 143.333 63.8636 145C67.4091 146.667 70.3788 148.652 72.7727 150.955C75.197 153.258 77.0303 155.909 78.2727 158.909C79.5152 161.909 80.1515 165.273 80.1818 169C80.1515 174.879 78.6667 179.924 75.7273 184.136C72.7879 188.348 68.5606 191.576 63.0455 193.818C57.5606 196.061 50.9394 197.182 43.1818 197.182C35.3939 197.182 28.6061 196.015 22.8182 193.682C17.0303 191.348 12.5303 187.803 9.31818 183.045C6.10606 178.288 4.45455 172.273 4.36364 165H25.9091C26.0909 168 26.8939 170.5 28.3182 172.5C29.7424 174.5 31.697 176.015 34.1818 177.045C36.697 178.076 39.6061 178.591 42.9091 178.591C45.9394 178.591 48.5152 178.182 50.6364 177.364C52.7879 176.545 54.4394 175.409 55.5909 173.955C56.7424 172.5 57.3333 170.833 57.3636 168.955C57.3333 167.197 56.7879 165.697 55.7273 164.455C54.6667 163.182 53.0303 162.091 50.8182 161.182C48.6364 160.242 45.8485 159.379 42.4545 158.591L32.7273 156.318C24.6667 154.47 18.3182 151.485 13.6818 147.364C9.04545 143.212 6.74242 137.606 6.77273 130.545C6.74242 124.788 8.28788 119.742 11.4091 115.409C14.5303 111.076 18.8485 107.697 24.3636 105.273C29.8788 102.848 36.1667 101.636 43.2273 101.636C50.4394 101.636 56.697 102.864 62 105.318C67.3333 107.742 71.4697 111.152 74.4091 115.545C77.3485 119.939 78.8485 125.03 78.9091 130.818H57.3636Z" fill="#626262"/>
<path d="M236.545 136.636H213.818C213.515 134.303 212.894 132.197 211.955 130.318C211.015 128.439 209.773 126.833 208.227 125.5C206.682 124.167 204.848 123.152 202.727 122.455C200.636 121.727 198.318 121.364 195.773 121.364C191.258 121.364 187.364 122.47 184.091 124.682C180.848 126.894 178.348 130.091 176.591 134.273C174.864 138.455 174 143.515 174 149.455C174 155.636 174.879 160.818 176.636 165C178.424 169.152 180.924 172.288 184.136 174.409C187.379 176.5 191.212 177.545 195.636 177.545C198.121 177.545 200.379 177.227 202.409 176.591C204.47 175.955 206.273 175.03 207.818 173.818C209.394 172.576 210.682 171.076 211.682 169.318C212.712 167.53 213.424 165.515 213.818 163.273L236.545 163.409C236.152 167.53 234.955 171.591 232.955 175.591C230.985 179.591 228.273 183.242 224.818 186.545C221.364 189.818 217.152 192.424 212.182 194.364C207.242 196.303 201.576 197.273 195.182 197.273C186.758 197.273 179.212 195.424 172.545 191.727C165.909 188 160.667 182.576 156.818 175.455C152.97 168.333 151.045 159.667 151.045 149.455C151.045 139.212 153 130.53 156.909 123.409C160.818 116.288 166.106 110.879 172.773 107.182C179.439 103.485 186.909 101.636 195.182 101.636C200.818 101.636 206.03 102.424 210.818 104C215.606 105.545 219.818 107.818 223.455 110.818C227.091 113.788 230.045 117.439 232.318 121.773C234.591 126.106 236 131.061 236.545 136.636Z" fill="#626262"/>
<circle cx="115" cy="150" r="40.5" stroke="#00B0F0" stroke-width="11"/>
<circle cx="194" cy="30" r="26" stroke="#00B0F0" stroke-width="8"/>
<circle cx="343" cy="30" r="26" stroke="#00B0F0" stroke-width="8"/>
<circle cx="274" cy="150" r="40.5" stroke="#00B0F0" stroke-width="11"/>
</svg>
